<svg viewBox="0 0 1000 1004.1441" xmlns="http://www.w3.org/2000/svg"><path d="m854 .144c34 0 63 29 63 62v876c0 33-29 62-63 62h-708c-33 0-63-29-63-62v-876c0-33 30-62 63-62h708zm21 208h-750v730c0 8 8 16 17 20h712c9 0 17-8 21-16zm-604 584c12 0 21 8 21 20v42c0 13-9 21-21 21h-42c-12 0-21-8-21-21v-42c0-12 9-20 21-20zm500 20c12 0 21 9 21 21s-9 21-21 21h-417c-12 0-21-8-21-21s9-21 21-21zm-500-187c8 0 17 8 21 17v45c0 9-9 17-17 21h-46c-8 0-16-8-21-16v-46c0-9 9-17 17-21zm500 21c12 0 21 8 21 21 0 8-9 16-17 20h-421c-12 0-21-8-21-20 0-9 9-17 17-21zm-500-188c12 0 21 9 21 21v42c0 12-9 21-21 21h-42c-12 0-21-9-21-21v-42c0-12 9-21 21-21zm500 21c12 0 21 8 21 21s-9 21-21 21h-417c-12 0-21-9-21-21s9-21 21-21zm-500-187c8 0 17 8 21 16v46c0 8-9 17-17 21h-46c-8 0-16-8-21-17v-46c0-8 9-16 17-20zm500 20c12 0 21 9 21 21 0 9-9 17-17 21h-421c-12 0-21-8-21-21 0-8 9-16 17-21zm83-270h-708c-8 0-17 8-21 16v109h750v-105c0-8-8-16-21-20z"/></svg>